<svg width="545" height="503" viewBox="0 0 545 503" fill="none" xmlns="http://www.w3.org/2000/svg">
<path d="M198.05 382.92H22.27C9.97 382.92 0 372.95 0 360.65V22.27C0 9.97 9.97 0 22.27 0H30.77C43.07 0 53.04 9.97 53.04 22.27V316.12C53.04 328.42 63.01 338.39 75.31 338.39H198.06C210.36 338.39 220.33 348.36 220.33 360.66C220.33 372.96 210.36 382.93 198.06 382.93L198.05 382.92Z" fill="white"/>
<path d="M264.12 115.26C276.58 115.26 286.68 125.36 286.68 137.82V381.28C286.68 397.69 284.24 413.26 279.36 428.01C274.48 442.76 267.06 455.6 257.09 466.54C247.13 477.48 234.63 486.17 219.59 492.61C204.55 499.06 186.87 502.28 166.56 502.28C158.94 502.28 151.18 501.74 143.27 500.67C135.36 499.59 127.74 498.13 120.42 496.28C113.1 494.43 106.21 492.18 99.7698 489.54C98.6598 489.08 97.5698 488.62 96.5098 488.15C88.3398 484.53 83.0698 476.45 83.0698 467.51V466.67C83.0698 450.69 99.2898 439.62 114.05 445.73C117.09 446.99 120.19 448.16 123.35 449.25C138.09 454.33 152.69 456.87 167.15 456.87C188.44 456.87 204.84 450.38 216.37 437.39C227.89 424.4 233.66 405.7 233.66 381.29V182.95C233.66 170.49 223.56 160.39 211.1 160.39H110.61C98.1498 160.39 88.0498 150.29 88.0498 137.83C88.0498 125.37 98.1498 115.27 110.61 115.27H264.13L264.12 115.26Z" fill="white"/>
<path d="M544.32 391.71C544.32 409.87 540.97 425.79 534.26 439.46C527.55 453.13 518.2 464.51 506.21 473.59C494.21 482.67 479.79 489.46 462.94 493.95C446.09 498.44 427.52 500.69 407.23 500.69C398.05 500.69 388.92 500.3 379.84 499.52C370.75 498.74 362.02 497.76 353.64 496.59C345.26 495.42 337.36 494.05 329.95 492.49C328.66 492.22 327.39 491.94 326.14 491.66C316.65 489.55 309.84 480.31 309.84 469.59V467.44C309.84 452.88 322.14 442.11 334.92 445.55C341.15 447.23 347.65 448.71 354.43 449.99C370.93 453.12 389.67 454.68 410.67 454.68C425.84 454.68 438.77 453.36 449.44 450.72C460.11 448.08 468.85 444.18 475.64 439C482.43 433.83 487.37 427.53 490.46 420.1C493.55 412.68 495.09 404.18 495.09 394.61C495.09 384.26 492.48 375.42 487.28 368.1C482.07 360.78 475.24 354.23 466.77 348.47C458.3 342.71 448.64 337.44 437.79 332.65C426.94 327.87 415.86 322.94 404.58 317.86C393.29 312.78 382.22 307.27 371.37 301.31C360.52 295.35 350.86 288.32 342.39 280.22C333.92 272.12 327.08 262.6 321.88 251.66C316.67 240.72 314.07 227.74 314.07 212.7C314.07 199.62 316.54 186.73 321.48 174.03C326.42 161.34 334.09 150.06 344.51 140.19C354.92 130.33 368.28 122.37 384.61 116.31C400.93 110.26 420.38 107.23 442.97 107.23C448.79 107.23 455.1 107.52 461.89 108.11C468.68 108.7 475.56 109.53 482.53 110.6C489.5 111.68 496.38 112.9 503.17 114.26C503.94 114.42 504.71 114.57 505.48 114.73C515.11 116.73 522.1 126.02 522.1 136.86C522.1 151.09 510.32 161.76 497.73 158.92C492.27 157.69 486.81 156.62 481.34 155.71C467.75 153.47 454.61 152.34 441.91 152.34C414.91 152.34 395.06 157.32 382.36 167.28C369.66 177.24 363.3 190.62 363.3 207.42C363.3 217.77 365.9 226.66 371.11 234.08C376.31 241.5 383.15 248.14 391.62 254C400.09 259.86 409.75 265.18 420.6 269.97C431.45 274.76 442.52 279.69 453.81 284.76C465.1 289.84 476.17 295.41 487.02 301.46C497.87 307.52 507.53 314.69 516 322.99C524.47 331.29 531.3 341.01 536.51 352.14C541.71 363.27 544.32 376.46 544.32 391.69V391.71Z" fill="white"/>
</svg>
