<?xml version="1.0" encoding="UTF-8"?>
<svg id="Layer_2" data-name="Layer 2" xmlns="http://www.w3.org/2000/svg" viewBox="0 0 788.5 708.62">
  <defs>
    <style>
      .cls-1 {
        stroke-width: 0px;
      }
    </style>
  </defs>
  <g id="L">
    <path class="cls-1" d="M319.64,485.59h-175.78c-12.3,0-22.27-9.97-22.27-22.27V124.94c0-12.3,9.97-22.27,22.27-22.27h8.5c12.3,0,22.27,9.97,22.27,22.27v293.85c0,12.3,9.97,22.27,22.27,22.27h122.75c12.3,0,22.27,9.97,22.27,22.27h0c0,12.3-9.97,22.27-22.27,22.27Z"/>
  </g>
  <g id="J">
    <path class="cls-1" d="M385.71,217.93c12.46,0,22.56,10.1,22.56,22.56v243.46c0,16.41-2.44,31.98-7.32,46.73-4.88,14.75-12.3,27.59-22.27,38.53-9.96,10.94-22.46,19.63-37.5,26.07-15.04,6.45-32.72,9.67-53.03,9.67-7.62,0-15.38-.54-23.29-1.61-7.91-1.08-15.53-2.54-22.85-4.39-7.32-1.85-14.21-4.1-20.65-6.74-1.11-.46-2.2-.92-3.26-1.39-8.17-3.62-13.44-11.7-13.44-20.64v-.84c0-15.98,16.22-27.05,30.98-20.94,3.04,1.26,6.14,2.43,9.3,3.52,14.74,5.08,29.34,7.62,43.8,7.62,21.29,0,37.69-6.49,49.22-19.48,11.52-12.99,17.29-31.69,17.29-56.1v-198.34c0-12.46-10.1-22.56-22.56-22.56h-100.49c-12.46,0-22.56-10.1-22.56-22.56h0c0-12.46,10.1-22.56,22.56-22.56h153.52Z"/>
  </g>
  <g id="S">
    <path class="cls-1" d="M665.91,494.38c0,18.16-3.35,34.08-10.06,47.75-6.71,13.67-16.06,25.05-28.05,34.13-12,9.08-26.42,15.87-43.27,20.36-16.85,4.49-35.42,6.74-55.71,6.74-9.18,0-18.31-.39-27.39-1.17-9.09-.78-17.82-1.76-26.2-2.93-8.38-1.17-16.28-2.54-23.69-4.1-1.29-.27-2.56-.55-3.81-.83-9.49-2.11-16.3-11.35-16.3-22.07v-2.15c0-14.56,12.3-25.33,25.08-21.89,6.23,1.68,12.73,3.16,19.51,4.44,16.5,3.13,35.24,4.69,56.24,4.69,15.17,0,28.1-1.32,38.77-3.96,10.67-2.64,19.41-6.54,26.2-11.72,6.79-5.17,11.73-11.47,14.82-18.9,3.09-7.42,4.63-15.92,4.63-25.49,0-10.35-2.61-19.19-7.81-26.51-5.21-7.32-12.04-13.87-20.51-19.63-8.47-5.76-18.13-11.03-28.98-15.82-10.85-4.78-21.93-9.71-33.21-14.79-11.29-5.08-22.36-10.59-33.21-16.55-10.85-5.96-20.51-12.99-28.98-21.09-8.47-8.1-15.31-17.62-20.51-28.56-5.21-10.94-7.81-23.92-7.81-38.96,0-13.08,2.47-25.97,7.41-38.67,4.94-12.69,12.61-23.97,23.03-33.84,10.41-9.86,23.77-17.82,40.1-23.88,16.32-6.05,35.77-9.08,58.36-9.08,5.82,0,12.13.29,18.92.88,6.79.59,13.67,1.42,20.64,2.49,6.97,1.08,13.85,2.3,20.64,3.66.77.16,1.54.31,2.31.47,9.63,2,16.62,11.29,16.62,22.13h0c0,14.23-11.78,24.9-24.37,22.06-5.46-1.23-10.92-2.3-16.39-3.21-13.59-2.24-26.73-3.37-39.43-3.37-27,0-46.85,4.98-59.55,14.94-12.7,9.96-19.06,23.34-19.06,40.14,0,10.35,2.6,19.24,7.81,26.66,5.2,7.42,12.04,14.06,20.51,19.92,8.47,5.86,18.13,11.18,28.98,15.97,10.85,4.79,21.92,9.72,33.21,14.79,11.29,5.08,22.36,10.65,33.21,16.7,10.85,6.06,20.51,13.23,28.98,21.53,8.47,8.3,15.3,18.02,20.51,29.15,5.2,11.13,7.81,24.32,7.81,39.55Z"/>
  </g>
</svg>